/* XPM */
static char * bitcoin64_xpm[] = {
"64 64 8 1",
" 	c None",
".	c #FFBB00",
"+	c #FFFFFF",
"@	c #FFBF10",
"#	c #FFD257",
"$	c #FFDB79",
"%	c #FFF9EA",
"&	c #FFC011",
"                                                                ",
"                           ..........                           ",
"                       ..................                       ",
"                    ........................                    ",
"                  ............................                  ",
"                ................................                ",
"              ....................................              ",
"             ......................................             ",
"            ........................................            ",
"           ..........................................           ",
"          ............................................          ",
"         ..............................................         ",
"        ................................................        ",
"       ....................++++++++++....................       ",
"      ..................+++++++++++++++@..................      ",
"      ................+++++++++++++++++++.................      ",
"     ................++++++++++++++++++++++................     ",
"     ..............++++++++..........+++++++...............     ",
"    ..............++++++...............++++++...............    ",
"    .............++++++..................+++++..............    ",
"   ..............+++++....................+++++..............   ",
"   .............+++++......................+++++.............   ",
"   ............+++++........................+++..............   ",
"  .............++++...........................................  ",
"  ............++++............................................  ",
"  ............++++............................................  ",
"  ......+++++++++++++++++.....................................  ",
" .......+++++++++++++++++...................................... ",
" .......+++++++++++++++++...................................... ",
" ......#+++++++++++++++++...................................... ",
" ............+++$..................+++++++++++++++%............ ",
" ............+++...................+++++++++++++++%............ ",
" ............+++...................+++++++++++++++%............ ",
" ............+++$..................+++++++++++++++%............ ",
" .......+++++++++++++++++......................+++%............ ",
" .......+++++++++++++++++......................+++%............ ",
" .......+++++++++++++++++......................+++............. ",
"  ......+++++++++++++++++.....................++++............  ",
"  ............++++............................++++............  ",
"  ............++++...........................++++.............  ",
"  .............++++..........................++++.............  ",
"   ............+++++........................++++.............   ",
"   .............+++++......................+++++.............   ",
"   ..............+++++....................+++++..............   ",
"    .............++++++..................+++++..............    ",
"    ..............++++++...............++++++...............    ",
"     ..............++++++++..........+++++++...............     ",
"     ................++++++++++++++++++++++................     ",
"      ................+++++++++++++++++++.................      ",
"      ..................+++++++++++++++&..................      ",
"       ....................++++++++++....................       ",
"        ................................................        ",
"         ..............................................         ",
"          ............................................          ",
"           ..........................................           ",
"            ........................................            ",
"             ......................................             ",
"              ....................................              ",
"                ................................                ",
"                  ............................                  ",
"                    ........................                    ",
"                       ..................                       ",
"                           ..........                           ",
"                                                                "};
