/* XPM */
static char * bitcoin128_xpm[] = {
"128 128 22 1",
" 	c None",
".	c #FFBB00",
"+	c #FFFBF1",
"@	c #FFFFFF",
"#	c #FFE294",
"$	c #FFD86B",
"%	c #FFE9AC",
"&	c #FFFAEB",
"*	c #FFCA3A",
"=	c #FFCB3C",
"-	c #FFD359",
";	c #FFC21A",
">	c #FFCE47",
",	c #FFF3D3",
"'	c #FFBE0C",
")	c #FFF5DA",
"!	c #FFC21B",
"~	c #FFE089",
"{	c #FFF9EA",
"]	c #FFE9AB",
"^	c #FFD86D",
"/	c #FFE395",
"                                                                                                                                ",
"                                                                                                                                ",
"                                                         ..............                                                         ",
"                                                   ..........................                                                   ",
"                                               ..................................                                               ",
"                                            ........................................                                            ",
"                                         ..............................................                                         ",
"                                       ..................................................                                       ",
"                                     ......................................................                                     ",
"                                   ..........................................................                                   ",
"                                 ..............................................................                                 ",
"                               ..................................................................                               ",
"                              ....................................................................                              ",
"                            ........................................................................                            ",
"                           ..........................................................................                           ",
"                          ............................................................................                          ",
"                        ................................................................................                        ",
"                       ..................................................................................                       ",
"                      ....................................................................................                      ",
"                     ......................................................................................                     ",
"                    ........................................................................................                    ",
"                   ..........................................................................................                   ",
"                  ............................................................................................                  ",
"                 ..............................................................................................                 ",
"                ................................................................................................                ",
"                ................................................................................................                ",
"               .........................................+@@@@@@@@@@@@@@..........................................               ",
"              ......................................@@@@@@@@@@@@@@@@@@@@@@@.......................................              ",
"             ....................................#@@@@@@@@@@@@@@@@@@@@@@@@@@@@.....................................             ",
"             ..................................@@@@@@@@@@@@@@@@@@@@@@@@@@@@@@@@@...................................             ",
"            .................................@@@@@@@@@@@@@@@@@@@@@@@@@@@@@@@@@@@@@..................................            ",
"           ................................$@@@@@@@@@@@@@@@@@@@@@@@@@@@@@@@@@@@@@@@@.................................           ",
"           ...............................@@@@@@@@@@@@@@@@@@@@@@@@@@@@@@@@@@@@@@@@@@@................................           ",
"          ...............................@@@@@@@@@@@@@@@@@@%........@@@@@@@@@@@@@@@@@@@...............................          ",
"          .............................@@@@@@@@@@@@@@@@.................@@@@@@@@@@@@@@@@..............................          ",
"         .............................@@@@@@@@@@@@@@.......................@@@@@@@@@@@@@@..............................         ",
"         ............................@@@@@@@@@@@@@...........................&@@@@@@@@@@@@.............................         ",
"        ............................@@@@@@@@@@@@...............................@@@@@@@@@@@@.............................        ",
"        ...........................@@@@@@@@@@@...................................@@@@@@@@@@@............................        ",
"       ...........................@@@@@@@@@@@.....................................@@@@@@@@@@@............................       ",
"       ..........................*@@@@@@@@@@.......................................=@@@@@@@@@@...........................       ",
"      ...........................@@@@@@@@@@..........................................@@@@@@@@@-...........................      ",
"      ..........................@@@@@@@@@@............................................@@@@@@@@@...........................      ",
"      .........................@@@@@@@@@@..............................................@@@@@@@@...........................      ",
"     ..........................@@@@@@@@@...............................................@@@@@@@.............................     ",
"     .........................@@@@@@@@@.................................................@@@@@..............................     ",
"     .........................@@@@@@@@...................................................@@................................     ",
"    .........................@@@@@@@@@......................................................................................    ",
"    .........................@@@@@@@@.......................................................................................    ",
"    ........................@@@@@@@@........................................................................................    ",
"    ........................@@@@@@@@........................................................................................    ",
"   ........................;@@@@@@@>.........................................................................................   ",
"   .............@@@@@@@@@@@@@@@@@@@@@@@@@@@@@@@@@@@..........................................................................   ",
"   .............@@@@@@@@@@@@@@@@@@@@@@@@@@@@@@@@@@...........................................................................   ",
"   .............@@@@@@@@@@@@@@@@@@@@@@@@@@@@@@@@@@...........................................................................   ",
"   .............@@@@@@@@@@@@@@@@@@@@@@@@@@@@@@@@@@...........................................................................   ",
"   ............@@@@@@@@@@@@@@@@@@@@@@@@@@@@@@@@@@@...........................................................................   ",
"  .............@@@@@@@@@@@@@@@@@@@@@@@@@@@@@@@@@@@............................................................................  ",
"  .............@@@@@@@@@@@@@@@@@@@@@@@@@@@@@@@@@@.............................................................................  ",
"  ........................@@@@@@@.............................................................................................  ",
"  ........................@@@@@@@.....................................@@@@@@@@@@@@@@@@@@@@@@@@@@@@@@@,........................  ",
"  .......................'@@@@@@@.....................................@@@@@@@@@@@@@@@@@@@@@@@@@@@@@@@,........................  ",
"  .......................@@@@@@@@.....................................@@@@@@@@@@@@@@@@@@@@@@@@@@@@@@@,........................  ",
"  .......................@@@@@@@@.....................................@@@@@@@@@@@@@@@@@@@@@@@@@@@@@@@,........................  ",
"  .......................@@@@@@@@.....................................@@@@@@@@@@@@@@@@@@@@@@@@@@@@@@@,........................  ",
"  .......................@@@@@@@@.....................................@@@@@@@@@@@@@@@@@@@@@@@@@@@@@@@,........................  ",
"  .......................'@@@@@@@.....................................@@@@@@@@@@@@@@@@@@@@@@@@@@@@@@@,........................  ",
"  ........................@@@@@@@.....................................@@@@@@@@@@@@@@@@@@@@@@@@@@@@@@@,........................  ",
"  ........................@@@@@@@.............................................................@@@@@@@,........................  ",
"  ..............@@@@@@@@@@@@@@@@@@@@@@@@@@@@@@@@@@)...........................................@@@@@@@.........................  ",
"  ..............@@@@@@@@@@@@@@@@@@@@@@@@@@@@@@@@@@............................................@@@@@@@.........................  ",
"   .............@@@@@@@@@@@@@@@@@@@@@@@@@@@@@@@@@@...........................................@@@@@@@@........................   ",
"   .............@@@@@@@@@@@@@@@@@@@@@@@@@@@@@@@@@@...........................................@@@@@@@@........................   ",
"   ............@@@@@@@@@@@@@@@@@@@@@@@@@@@@@@@@@@@...........................................@@@@@@@@........................   ",
"   ............@@@@@@@@@@@@@@@@@@@@@@@@@@@@@@@@@@@...........................................@@@@@@@.........................   ",
"   ............@@@@@@@@@@@@@@@@@@@@@@@@@@@@@@@@@@...........................................@@@@@@@@.........................   ",
"   ........................!@@@@@@@>........................................................@@@@@@@@.........................   ",
"    ........................@@@@@@@@.......................................................@@@@@@@@.........................    ",
"    ........................@@@@@@@@.......................................................@@@@@@@@.........................    ",
"    .........................@@@@@@@@.....................................................@@@@@@@@@.........................    ",
"    .........................@@@@@@@@@....................................................@@@@@@@@..........................    ",
"     .........................@@@@@@@@...................................................@@@@@@@@@.........................     ",
"     .........................@@@@@@@@@.................................................@@@@@@@@@..........................     ",
"     ..........................@@@@@@@@@...............................................@@@@@@@@@~..........................     ",
"      .........................@@@@@@@@@@..............................................@@@@@@@@@..........................      ",
"      ..........................@@@@@@@@@@............................................@@@@@@@@@...........................      ",
"      ...........................@@@@@@@@@@..........................................@@@@@@@@@-...........................      ",
"       ..........................*@@@@@@@@@@.......................................*@@@@@@@@@@...........................       ",
"       ...........................@@@@@@@@@@@.....................................@@@@@@@@@@@............................       ",
"        ...........................@@@@@@@@@@@...................................@@@@@@@@@@@............................        ",
"        ............................@@@@@@@@@@@@...............................@@@@@@@@@@@@.............................        ",
"         ............................@@@@@@@@@@@@@...........................{@@@@@@@@@@@@.............................         ",
"         .............................@@@@@@@@@@@@@@.......................@@@@@@@@@@@@@@..............................         ",
"          .............................@@@@@@@@@@@@@@@@.................@@@@@@@@@@@@@@@@..............................          ",
"          ...............................@@@@@@@@@@@@@@@@@@]........@@@@@@@@@@@@@@@@@@@...............................          ",
"           ...............................@@@@@@@@@@@@@@@@@@@@@@@@@@@@@@@@@@@@@@@@@@@................................           ",
"           ................................^@@@@@@@@@@@@@@@@@@@@@@@@@@@@@@@@@@@@@@@@.................................           ",
"            .................................@@@@@@@@@@@@@@@@@@@@@@@@@@@@@@@@@@@@@..................................            ",
"             ..................................@@@@@@@@@@@@@@@@@@@@@@@@@@@@@@@@@...................................             ",
"             ..................................../@@@@@@@@@@@@@@@@@@@@@@@@@@@@.....................................             ",
"              ......................................@@@@@@@@@@@@@@@@@@@@@@@.......................................              ",
"               .........................................+@@@@@@@@@@@@@@..........................................               ",
"                ................................................................................................                ",
"                ................................................................................................                ",
"                 ..............................................................................................                 ",
"                  ............................................................................................                  ",
"                   ..........................................................................................                   ",
"                    ........................................................................................                    ",
"                     ......................................................................................                     ",
"                      ....................................................................................                      ",
"                       ..................................................................................                       ",
"                        ................................................................................                        ",
"                          ............................................................................                          ",
"                           ..........................................................................                           ",
"                            ........................................................................                            ",
"                              ....................................................................                              ",
"                               ..................................................................                               ",
"                                 ..............................................................                                 ",
"                                   ..........................................................                                   ",
"                                     ......................................................                                     ",
"                                       ..................................................                                       ",
"                                         ..............................................                                         ",
"                                            ........................................                                            ",
"                                               ..................................                                               ",
"                                                   ..........................                                                   ",
"                                                         ..............                                                         ",
"                                                                                                                                ",
"                                                                                                                                "};
