/* XPM */
static char * bitcoin32_xpm[] = {
"32 32 5 1",
" 	c None",
".	c #FFBB00",
"+	c #FFE18D",
"@	c #FFFFFF",
"#	c #FFE08C",
"                                ",
"           ..........           ",
"        ................        ",
"       ..................       ",
"      ....................      ",
"     ......................     ",
"    ...........++...........    ",
"   .........@@@@@@@@.........   ",
"  ........@@@@....@@@@........  ",
"  .......@@@........@@@.......  ",
"  ......@@@..........@@@......  ",
" ......@@@............@........ ",
" ......@@...................... ",
" ...@@@@@@@@@.................. ",
" ...@@@@@@@@................... ",
" .....@@.........@@@@@@@@...... ",
" .....@@.........@@@@@@@@...... ",
" ...@@@@@@@@@..........@@...... ",
" ...@@@@@@@@...........@@...... ",
" ......@@..............@@...... ",
" ......@@@............@@....... ",
"  ......@@@..........@@@......  ",
"  .......@@@........@@@.......  ",
"  ........@@@@....@@@@........  ",
"   .........@@@@@@@@.........   ",
"    ...........##...........    ",
"     ......................     ",
"      ....................      ",
"       ..................       ",
"        ................        ",
"           ..........           ",
"                                "};
