/* XPM */
static char * bitcoin32_xpm[] = {
"32 32 332 2",
"  	c None",
". 	c #FFD321",
"+ 	c #FFD421",
"@ 	c #FFD521",
"# 	c #FFD522",
"$ 	c #FFD623",
"% 	c #FFD31F",
"& 	c #FFD220",
"* 	c #FFD320",
"= 	c #FFD420",
"- 	c #FFD422",
"; 	c #FFCF1E",
"> 	c #FFD01E",
", 	c #FFD11E",
"' 	c #FFD634",
") 	c #FADD64",
"! 	c #EDD35E",
"~ 	c #E7CE59",
"{ 	c #E6CE56",
"] 	c #E6CD56",
"^ 	c #E7CF59",
"/ 	c #EDD45E",
"( 	c #F8DD67",
"_ 	c #FFDA3E",
": 	c #FFD624",
"< 	c #FFCE1C",
"[ 	c #FFCF1C",
"} 	c #FFD432",
"| 	c #F3D96C",
"1 	c #E2C845",
"2 	c #E3BF05",
"3 	c #EFC701",
"4 	c #F5CC01",
"5 	c #F7CE01",
"6 	c #F5CD01",
"7 	c #F0C801",
"8 	c #E4BF03",
"9 	c #E2C63C",
"0 	c #F0D96C",
"a 	c #FFDB3F",
"b 	c #FFCD1A",
"c 	c #FFCD1B",
"d 	c #FDD855",
"e 	c #E4CB51",
"f 	c #E7C102",
"g 	c #FCD201",
"h 	c #FDD301",
"i 	c #F8CF01",
"j 	c #E9C301",
"k 	c #E3C846",
"l 	c #FBDE62",
"m 	c #FFCB18",
"n 	c #FFCB1A",
"o 	c #FAD85E",
"p 	c #E0C22F",
"q 	c #F2C901",
"r 	c #FCD101",
"s 	c #FDD201",
"t 	c #F4CA01",
"u 	c #DFBF22",
"v 	c #F7DD6B",
"w 	c #FFC917",
"x 	c #FDD653",
"y 	c #DFC12F",
"z 	c #F3CA01",
"A 	c #FDE054",
"B 	c #FEF6CB",
"C 	c #FFFDF4",
"D 	c #FFFFFE",
"E 	c #FFFDF7",
"F 	c #FFF8DB",
"G 	c #FEEA8C",
"H 	c #FCD30D",
"I 	c #DFBE21",
"J 	c #FADE65",
"K 	c #FFD622",
"L 	c #FFC716",
"M 	c #FFCD2D",
"N 	c #E4C952",
"O 	c #F1C702",
"P 	c #FCD002",
"Q 	c #FCD20C",
"R 	c #FEF3C0",
"S 	c #FFFFFF",
"T 	c #FFFCF1",
"U 	c #FDE059",
"V 	c #F3C902",
"W 	c #E1C540",
"X 	c #FFDA45",
"Y 	c #FFC515",
"Z 	c #FFC615",
"` 	c #F3D568",
" .	c #E6BE03",
"..	c #FBCE02",
"+.	c #FCCF02",
"@.	c #FCD007",
"#.	c #FFF8D7",
"$.	c #FFFEFC",
"%.	c #FFFBE9",
"&.	c #FFFAE6",
"*.	c #FFFDF6",
"=.	c #FFFEFD",
"-.	c #FDE67B",
";.	c #FBCF02",
">.	c #EAC102",
",.	c #EED56B",
"'.	c #FFC413",
").	c #FFCA2A",
"!.	c #E2C546",
"~.	c #F6C902",
"{.	c #FCCE02",
"].	c #FEEFAB",
"^.	c #FEEC9E",
"/.	c #FCD115",
"(.	c #FCCE05",
"_.	c #FDE05E",
":.	c #FFFAE3",
"<.	c #FEF5CC",
"[.	c #F8CB02",
"}.	c #E0C02F",
"|.	c #FFDB48",
"1.	c #FFC311",
"2.	c #FFC312",
"3.	c #FAD55D",
"4.	c #E2B906",
"5.	c #FACC02",
"6.	c #FBCD02",
"7.	c #FBD52C",
"8.	c #FDDF5C",
"9.	c #FBCE07",
"0.	c #FEF1BB",
"a.	c #FEF6D4",
"b.	c #FBCF0B",
"c.	c #E6BC02",
"d.	c #F4D867",
"e.	c #FFC112",
"f.	c #FFC211",
"g.	c #EECC5B",
"h.	c #EDC102",
"i.	c #FBD326",
"j.	c #FDDF62",
"k.	c #FEF2BF",
"l.	c #FEF6D1",
"m.	c #FDDF60",
"n.	c #FBCF10",
"o.	c #FBCC02",
"p.	c #F0C402",
"q.	c #E9CE5D",
"r.	c #FFD21F",
"s.	c #FFC00F",
"t.	c #FFC110",
"u.	c #E7CA58",
"v.	c #F3C402",
"w.	c #FEEFAE",
"x.	c #FDE378",
"y.	c #FBCB02",
"z.	c #F5C602",
"A.	c #E3C754",
"B.	c #FFBF0E",
"C.	c #E5C756",
"D.	c #F5C502",
"E.	c #FBCD12",
"F.	c #FBD435",
"G.	c #FFFDF5",
"H.	c #FFFCF0",
"I.	c #FBCA06",
"J.	c #FBCA02",
"K.	c #FBCD10",
"L.	c #FCD63D",
"M.	c #FCD537",
"N.	c #F7C702",
"O.	c #E2C345",
"P.	c #FFD01F",
"Q.	c #FFBE0E",
"R.	c #E5C656",
"S.	c #F4C403",
"T.	c #FAC903",
"U.	c #FFFAE8",
"V.	c #FDEBA2",
"W.	c #FACB0A",
"X.	c #F6C603",
"Y.	c #E1C245",
"Z.	c #FFCF1D",
"`.	c #FFBD0C",
" +	c #FFBE0D",
".+	c #E6C757",
"++	c #F2C103",
"@+	c #FBD236",
"#+	c #FCDF70",
"$+	c #FFFDF3",
"%+	c #FCDE6B",
"&+	c #FCDE6D",
"*+	c #FACA14",
"=+	c #FAC703",
"-+	c #FDEBA7",
";+	c #FAC808",
">+	c #F5C303",
",+	c #E2C553",
"'+	c #FFBC0C",
")+	c #ECC859",
"!+	c #EDBC03",
"~+	c #FEF1C1",
"{+	c #FDE077",
"]+	c #FAC603",
"^+	c #FCD956",
"/+	c #FEF0BC",
"(+	c #FFFEFB",
"_+	c #FAC604",
":+	c #F0BF03",
"<+	c #E8CA5C",
"[+	c #FFBC0B",
"}+	c #F8CE5B",
"|+	c #E2B305",
"1+	c #F9C811",
"2+	c #FACD26",
"3+	c #FCDF76",
"4+	c #FFFBEE",
"5+	c #FBCF2E",
"6+	c #FAC505",
"7+	c #FAC503",
"8+	c #FCDB64",
"9+	c #FEF6DB",
"0+	c #E6B603",
"a+	c #F3D363",
"b+	c #FFCB1B",
"c+	c #FFBB0B",
"d+	c #FFC329",
"e+	c #DFBC3D",
"f+	c #F4C003",
"g+	c #F9C403",
"h+	c #F9C405",
"i+	c #FFF9E5",
"j+	c #FEF4D2",
"k+	c #F9C814",
"l+	c #FAD13A",
"m+	c #FCDD6B",
"n+	c #F6C103",
"o+	c #DDB626",
"p+	c #FFD54A",
"q+	c #FFBB0A",
"r+	c #F0CC65",
"s+	c #E6B403",
"t+	c #F8C203",
"u+	c #F9C303",
"v+	c #FBD243",
"w+	c #FFFCF3",
"x+	c #FDEAAA",
"y+	c #FCDC6B",
"z+	c #FBD859",
"A+	c #FCDE76",
"B+	c #FDEFBD",
"C+	c #FEF5D6",
"D+	c #EAB703",
"E+	c #EBCD66",
"F+	c #FFC918",
"G+	c #FFCA17",
"H+	c #FFBA0A",
"I+	c #FFC32C",
"J+	c #E0BD46",
"K+	c #F0BB03",
"L+	c #F9C203",
"M+	c #FCDB69",
"N+	c #FFF9E7",
"O+	c #F9C71A",
"P+	c #F2BD03",
"Q+	c #DDB734",
"R+	c #FED244",
"S+	c #FFB90A",
"T+	c #FACC54",
"U+	c #DDB224",
"V+	c #F2BC04",
"W+	c #F9C104",
"X+	c #FBD040",
"Y+	c #FEF7DE",
"Z+	c #FDEFBF",
"`+	c #F9C515",
" @	c #F4BD04",
".@	c #DEB017",
"+@	c #F7D265",
"@@	c #FFC514",
"#@	c #FFBA09",
"$@	c #F7CD60",
"%@	c #DCB123",
"&@	c #F0B904",
"*@	c #F8C004",
"=@	c #F9C004",
"-@	c #F9C927",
";@	c #FBD761",
">@	c #FBDE7B",
",@	c #FBDF7F",
"'@	c #FCDD76",
")@	c #FAD558",
"!@	c #F9C51B",
"~@	c #F2BB04",
"{@	c #DDB017",
"]@	c #F4D26C",
"^@	c #FFC415",
"/@	c #FFB909",
"(@	c #FACD57",
"_@	c #DEBA40",
":@	c #E6B204",
"<@	c #F4BC04",
"[@	c #F8BF04",
"}@	c #F5BD04",
"|@	c #E9B404",
"1@	c #DDB635",
"2@	c #F6D164",
"3@	c #FFC213",
"4@	c #FEC430",
"5@	c #ECCA65",
"6@	c #DDB530",
"7@	c #E3AF04",
"8@	c #EEB704",
"9@	c #F3BB04",
"0@	c #EEB804",
"a@	c #E5B004",
"b@	c #DCB227",
"c@	c #EACA65",
"d@	c #FECC3E",
"e@	c #FFC636",
"f@	c #F4CB5D",
"g@	c #E8C459",
"h@	c #E2C054",
"i@	c #E0BC46",
"j@	c #E0BB45",
"k@	c #E1BF53",
"l@	c #E7C459",
"m@	c #F3CC5D",
"n@	c #FECC41",
"o@	c #FFBA0B",
"p@	c #FFBB0C",
"q@	c #FFB809",
"                                                                ",
"                                                                ",
"                        . + @ # # $ $ $                         ",
"                    % & * = + + - # # $ $ $                     ",
"                ; > , ' ) ! ~ { ] ^ / ( _ $ $ :                 ",
"              < [ } | 1 2 3 4 5 5 6 7 8 9 0 a $ $               ",
"            b c d e f 5 g h h h h h h g i j k l $ $             ",
"          m n o p q r s s s s s s s s s s r t u v # $           ",
"        w w x y z r r r A B C D D E F G H r r 4 I J # K         ",
"        L M N O P P Q R D S S S S S S S T U P P V W X #         ",
"      Y Z `  ...+.@.#.S S S $.%.&.*.S S S =.-.+.;.>.,.+ #       ",
"      '.).!.~.{.{.].S S $.^./.{.{.(._.:.S S <.{.{.[.}.|.=       ",
"    1.2.3.4.5.6.7.$.S $.8.6.6.6.6.6.6.9.0.a.b.6.6.6.c.d.* %     ",
"    e.f.g.h.i.j.k.S S l.m.n.o.o.o.o.o.o.o.o.o.o.o.o.p.q.r.*     ",
"    s.t.u.v.w.S S S S S S x.y.y.y.y.y.y.y.y.y.y.y.y.z.A., %     ",
"    B.s.C.D.E.F.G.S H.F.F.I.J.J.J.K.L.L.L.L.L.M.J.J.N.O.P.>     ",
"    Q.B.R.S.T.T.C S U.T.T.T.T.T.T.V.S S S S S S W.T.X.Y.; Z.    ",
"    `. +.+++@+#+$+S E %+&+*+=+=+=+-+S S S S S S ;+=+>+,+< <     ",
"    '+`.)+!+~+S S S S S S {+]+]+]+^+/+/+/+$.S (+_+]+:+<+c c     ",
"    [+'+}+|+1+2+3+S S 4+5+6+7+7+7+7+7+7+8+S S 9+7+7+0+a+n b+    ",
"      c+d+e+f+g+h+i+S S j+k+g+g+g+g+g+l+C S S m+g+n+o+p+m       ",
"      q+q+r+s+t+u+v+(+S S w+x+y+z+A+B+(+S S C+u+u+D+E+F+G+      ",
"        H+I+J+K+L+L+M+(+S S S S S S S S S N+O+L+P+Q+R+L         ",
"        S+S+T+U+V+W+W+X+Y+S S S S S S =.Z+`+W+ @.@+@@@Z         ",
"          #@S+$@%@&@*@*@=@-@;@>@,@'@)@!@*@*@~@{@]@^@'.          ",
"            /@S+(@_@:@<@[@[@[@[@[@[@[@[@}@|@1@2@3@1.            ",
"              #@/@4@5@6@7@8@~@<@<@9@0@a@b@c@d@s.t.              ",
"                /@/@/@e@f@g@h@i@j@k@l@m@n@Q.Q.B.                ",
"                    #@/@/@S+S+o@'+c+c+p@'+`.                    ",
"                        q@/@/@S+S+H+o@c+                        ",
"                                                                ",
"                                                                "};
