/* XPM */
static char * bitcoin16_xpm[] = {
"16 16 7 1",
" 	c None",
".	c #FFBB00",
"+	c #FFF0C6",
"@	c #FFFFFF",
"#	c #FFEDBB",
"$	c #FFE6A1",
"%	c #FFF0C7",
"      ....      ",
"    ........    ",
"   ..........   ",
"  ....++++....  ",
" ....@....@.... ",
" ...@......@... ",
"..@@@@..........",
"...@............",
"...@........#...",
"..@@@@.....$....",
" ...@......@... ",
" ....@....@.... ",
"  ....%%%%....  ",
"   ..........   ",
"    ........    ",
"      ....      "};
