/* XPM */
static char * bitcoin32_xpm[] = {
"32 32 569 2",
"  	c None",
". 	c #EFD9A1",
"+ 	c #EDD394",
"@ 	c #D2B56C",
"# 	c #C3A457",
"$ 	c #C2A251",
"% 	c #CDAB55",
"& 	c #E0BB5D",
"* 	c #DDB655",
"= 	c #F4E5BD",
"- 	c #D8C38E",
"; 	c #917529",
"> 	c #CDBC78",
", 	c #FCF0AB",
"' 	c #FBEC9E",
") 	c #FDEA95",
"! 	c #FBE284",
"~ 	c #FBDD73",
"{ 	c #FAD968",
"] 	c #D2B451",
"^ 	c #9C7E2F",
"/ 	c #C39C3A",
"( 	c #CBA23B",
"_ 	c #DFCD9F",
": 	c #A68E48",
"< 	c #FDF6C5",
"[ 	c #FCF5C4",
"} 	c #FDF6C6",
"| 	c #FDF5C6",
"1 	c #FDF4C4",
"2 	c #FDF3BF",
"3 	c #FDF0B6",
"4 	c #FDEBA8",
"5 	c #FDE696",
"6 	c #FDE383",
"7 	c #FDE171",
"8 	c #FCE267",
"9 	c #B09235",
"0 	c #BD9633",
"a 	c #F4E6C1",
"b 	c #9D823B",
"c 	c #F9F1C0",
"d 	c #FFF9CF",
"e 	c #FEF9D4",
"f 	c #FEF9DA",
"g 	c #FDFAE0",
"h 	c #FBF3CB",
"i 	c #F6E5A2",
"j 	c #F0DA84",
"k 	c #EED679",
"l 	c #F4DD87",
"m 	c #FAE8A9",
"n 	c #FEEFBB",
"o 	c #FEEBA5",
"p 	c #FDE78D",
"q 	c #FCE677",
"r 	c #F6E16A",
"s 	c #AB872D",
"t 	c #B6902F",
"u 	c #F5E5BF",
"v 	c #94782E",
"w 	c #FFF8CC",
"x 	c #FFF9D2",
"y 	c #FFFBDE",
"z 	c #FEFAE2",
"A 	c #F3E1A0",
"B 	c #ECD88B",
"C 	c #EED67B",
"D 	c #F5DA73",
"E 	c #F6D967",
"F 	c #F5D55A",
"G 	c #EECC4B",
"H 	c #E7C440",
"I 	c #DDBB38",
"J 	c #E5C340",
"K 	c #FBEBB1",
"L 	c #FCEBA2",
"M 	c #FCEA88",
"N 	c #FCEA72",
"O 	c #B59234",
"P 	c #AD8829",
"Q 	c #F5E7C1",
"R 	c #94782D",
"S 	c #FFF6CB",
"T 	c #FFF9D7",
"U 	c #FFFBE2",
"V 	c #F8EBB9",
"W 	c #EEDD9B",
"X 	c #F7E191",
"Y 	c #FAE286",
"Z 	c #FEE27D",
"` 	c #FDDF70",
" .	c #FDDD65",
"..	c #FBD958",
"+.	c #F9D54C",
"@.	c #F7D03F",
"#.	c #FBD43D",
"$.	c #F4CD34",
"%.	c #DAB425",
"&.	c #ECCB51",
"*.	c #FCEEB0",
"=.	c #FDED92",
"-.	c #FCEB74",
";.	c #BC9736",
">.	c #A58025",
",.	c #A78D4A",
"'.	c #FFF4CA",
").	c #FFF7D5",
"!.	c #FFFBE4",
"~.	c #F4E5AE",
"{.	c #F6E4A0",
"].	c #FDE898",
"^.	c #FDE68E",
"/.	c #F8DF81",
"(.	c #EBD071",
"_.	c #E3C765",
":.	c #DEC059",
"<.	c #DBBC4D",
"[.	c #DEBC43",
"}.	c #EAC43E",
"|.	c #F5CD39",
"1.	c #F9CE30",
"2.	c #F4C928",
"3.	c #E8C027",
"4.	c #E1BC31",
"5.	c #FEF1B6",
"6.	c #FDED91",
"7.	c #FBEA71",
"8.	c #B79131",
"9.	c #EBDBB1",
"0.	c #F1E0AF",
"a.	c #FFF5D0",
"b.	c #FFF9E1",
"c.	c #F3E4AD",
"d.	c #F6E49F",
"e.	c #FBE698",
"f.	c #F7E18D",
"g.	c #EBD482",
"h.	c #F6E8A7",
"i.	c #FFFEFB",
"j.	c #FFFFFF",
"k.	c #FEFCF0",
"l.	c #E5CD69",
"m.	c #DCB428",
"n.	c #F1C728",
"o.	c #F5CA28",
"p.	c #EEC52A",
"q.	c #E0BC31",
"r.	c #FCEEAE",
"s.	c #FAE984",
"t.	c #F1DC65",
"u.	c #9A771F",
"v.	c #FFF1C5",
"w.	c #FFF6D7",
"x.	c #F9EEC1",
"y.	c #F3E19D",
"z.	c #FBE697",
"A.	c #F6E08E",
"B.	c #E8D285",
"C.	c #FEFDFA",
"D.	c #CCA728",
"E.	c #F1C72C",
"F.	c #FCD12F",
"G.	c #EBC32B",
"H.	c #EFD160",
"I.	c #FCEC9F",
"J.	c #FAE773",
"K.	c #D1AA41",
"L.	c #EDDAA9",
"M.	c #F6E7B1",
"N.	c #FEF2C8",
"O.	c #FFF7E0",
"P.	c #EDDC98",
"Q.	c #F8E392",
"R.	c #F9E38E",
"S.	c #E7D284",
"T.	c #FDF9E0",
"U.	c #FCF8E1",
"V.	c #C5A432",
"W.	c #F2C729",
"X.	c #F6CB2A",
"Y.	c #D7B123",
"Z.	c #FDEFB4",
"`.	c #FDE987",
" +	c #F6E065",
".+	c #8D6B17",
"++	c #A78C45",
"@+	c #FDF1B7",
"#+	c #FEF4CF",
"$+	c #F6E7AC",
"%+	c #F6E18F",
"&+	c #F9E187",
"*+	c #EAD27E",
"=+	c #FFFEF8",
"-+	c #E1C55D",
";+	c #E1C049",
">+	c #EBC745",
",+	c #EBC53E",
"'+	c #E0BA34",
")+	c #CEAD33",
"!+	c #FAF8EE",
"~+	c #BEA03D",
"{+	c #F4C92B",
"]+	c #FCD02D",
"^+	c #F0C72B",
"/+	c #EBCA4F",
"(+	c #FDEA98",
"_+	c #FAE368",
":+	c #A89045",
"<+	c #FDF3B9",
"[+	c #FEF6D5",
"}+	c #E8D384",
"|+	c #F5DC80",
"1+	c #F0D678",
"2+	c #F2E198",
"3+	c #FFFEF7",
"4+	c #D6B750",
"5+	c #F1CE4E",
"6+	c #FCD84C",
"7+	c #FDD745",
"8+	c #FDD53E",
"9+	c #FDD437",
"0+	c #F6CC30",
"a+	c #D7AF22",
"b+	c #E3D8B2",
"c+	c #BFA346",
"d+	c #EAC028",
"e+	c #F4C926",
"f+	c #F7CC29",
"g+	c #F4CA28",
"h+	c #D7B225",
"i+	c #FEEBA6",
"j+	c #F9DF6D",
"k+	c #E3BC4B",
"l+	c #EED28E",
"m+	c #D7C77A",
"n+	c #FDF4BA",
"o+	c #FEF8D9",
"p+	c #E2CA74",
"q+	c #F5E59E",
"r+	c #F5E7A6",
"s+	c #FFFEF6",
"t+	c #F7E799",
"u+	c #EFDD8E",
"v+	c #E2BF44",
"w+	c #FBD545",
"x+	c #FDD63F",
"y+	c #F7CD32",
"z+	c #FDD333",
"A+	c #FDD22F",
"B+	c #EAC026",
"C+	c #F3C92C",
"D+	c #F7CC28",
"E+	c #F4C825",
"F+	c #DFB825",
"G+	c #FEECAE",
"H+	c #FDE176",
"I+	c #F2CF53",
"J+	c #7F5F0F",
"K+	c #EBCD83",
"L+	c #F4E892",
"M+	c #FCF5B8",
"N+	c #FBF1C1",
"O+	c #E1C769",
"P+	c #DFBF47",
"Q+	c #FAD33E",
"R+	c #FDD43A",
"S+	c #F7CD2E",
"T+	c #F8CD2F",
"U+	c #EFC426",
"V+	c #EDC325",
"W+	c #F2C72A",
"X+	c #F5CA2D",
"Y+	c #F1C628",
"Z+	c #F7CC2E",
"`+	c #F6CA28",
" @	c #F6DF8A",
".@	c #FADD76",
"+@	c #F6D24E",
"@@	c #7D5D0E",
"#@	c #E9C978",
"$@	c #FCEF8F",
"%@	c #FCF4B3",
"&@	c #F8EBAD",
"*@	c #E9CB5C",
"=@	c #E2C459",
"-@	c #D7BA56",
";@	c #FBF3C9",
">@	c #D1B03E",
",@	c #D8B53A",
"'@	c #EAC437",
")@	c #FCD339",
"!@	c #FDD335",
"~@	c #EFC529",
"{@	c #C5A63C",
"]@	c #C5AC5F",
"^@	c #C1A85D",
"/@	c #BDA45B",
"(@	c #BAA159",
"_@	c #B89F58",
":@	c #B4994A",
"<@	c #EDC32A",
"[@	c #ECC42A",
"}@	c #F4DA7A",
"|@	c #FADC77",
"1@	c #F9D149",
"2@	c #7B5C0D",
"3@	c #E7C46D",
"4@	c #FBEC83",
"5@	c #FDF4AC",
"6@	c #F8EBAA",
"7@	c #EAC950",
"8@	c #EECB4E",
"9@	c #D3B448",
"0@	c #F7EEC1",
"a@	c #DDB836",
"b@	c #E9C133",
"c@	c #F7CF37",
"d@	c #F8CE2F",
"e@	c #F8CD2B",
"f@	c #E5BB25",
"g@	c #F3EFE2",
"h@	c #E0B728",
"i@	c #FACF2C",
"j@	c #E8BF26",
"k@	c #F5DD80",
"l@	c #FADD77",
"m@	c #F7CD46",
"n@	c #E3BE62",
"o@	c #EAD66A",
"p@	c #FEF29F",
"q@	c #FCF2BD",
"r@	c #DBBA44",
"s@	c #FFF6C7",
"t@	c #FEF7D2",
"u@	c #FEFDF9",
"v@	c #F4EBC7",
"w@	c #F0E8C5",
"x@	c #D8B22C",
"y@	c #FACF2E",
"z@	c #FCD12E",
"A@	c #E4BA23",
"B@	c #F2EEE2",
"C@	c #E0B725",
"D@	c #F6CB28",
"E@	c #E3BB24",
"F@	c #F9E79B",
"G@	c #FDE279",
"H@	c #F3CA47",
"I@	c #7C5C0C",
"J@	c #DFB957",
"K@	c #CAB252",
"L@	c #FEEE8E",
"M@	c #FEF6C2",
"N@	c #D1B03A",
"O@	c #FFFFFD",
"P@	c #F2C829",
"Q@	c #C7A122",
"R@	c #B08B1A",
"S@	c #AB8619",
"T@	c #9A7715",
"U@	c #E6E0CF",
"V@	c #E5BB24",
"W@	c #DCB626",
"X@	c #FEF2B4",
"Y@	c #FDE375",
"Z@	c #EEC64D",
"`@	c #9B7E30",
" #	c #FDEA78",
".#	c #FEF3AF",
"+#	c #DBB937",
"@#	c #DEB72E",
"##	c #D9B12B",
"$#	c #D7BA4D",
"%#	c #FBFAF4",
"&#	c #C49D20",
"*#	c #EBC22A",
"=#	c #FBD02E",
"-#	c #D5AC21",
";#	c #E9E3D4",
">#	c #AD8E36",
",#	c #F5CB2B",
"'#	c #DEB92D",
")#	c #FCF0A6",
"!#	c #F8E169",
"~#	c #DCB144",
"{#	c #BA9539",
"]#	c #FDE561",
"^#	c #FEEE95",
"/#	c #F6E38F",
"(#	c #E5BE29",
"_#	c #F6CB2B",
":#	c #DDB424",
"<#	c #F9F6E9",
"[#	c #F8F6EF",
"}#	c #BE9921",
"|#	c #DBB222",
"1#	c #EBC12A",
"2#	c #ECC22B",
"3#	c #E5BC29",
"4#	c #CAA321",
"5#	c #D9CFB5",
"6#	c #FDFCFA",
"7#	c #D8B022",
"8#	c #F6CB29",
"9#	c #EBC32C",
"0#	c #F5DF80",
"a#	c #FDEF97",
"b#	c #FCE666",
"c#	c #9F7B21",
"d#	c #D0A63E",
"e#	c #D2B543",
"f#	c #FCE875",
"g#	c #FDF2AD",
"h#	c #DDB82C",
"i#	c #F6CC2D",
"j#	c #F7CD2D",
"k#	c #CDA622",
"l#	c #FEFEFD",
"m#	c #DFD6C0",
"n#	c #D9CFB6",
"o#	c #F5F2EC",
"p#	c #B48F1E",
"q#	c #F0C527",
"r#	c #DCB72B",
"s#	c #FCF2AE",
"t#	c #FDEE82",
"u#	c #F0D15B",
"v#	c #7B5D0E",
"w#	c #AA862C",
"x#	c #FDE35B",
"y#	c #FEED8C",
"z#	c #FBEEAB",
"A#	c #D8B223",
"B#	c #EEC326",
"C#	c #C49E1F",
"D#	c #FBFAF7",
"E#	c #B08E26",
"F#	c #EDC329",
"G#	c #F4C929",
"H#	c #DBB525",
"I#	c #F9EBA1",
"J#	c #FBED90",
"K#	c #FCEB6D",
"L#	c #B89130",
"M#	c #C39B36",
"N#	c #C0A039",
"O#	c #FAE364",
"P#	c #FCED97",
"Q#	c #F4DE7F",
"R#	c #E2BC2A",
"S#	c #F9CF2E",
"T#	c #DAB225",
"U#	c #B69C51",
"V#	c #FBF9F6",
"W#	c #C8B891",
"X#	c #CBA420",
"Y#	c #F2C72B",
"Z#	c #F7CC2C",
"`#	c #DEB725",
" $	c #F3DA71",
".$	c #FCEF98",
"+$	c #FDEC74",
"@$	c #E9C452",
"#$	c #7B5D0D",
"$$	c #B89230",
"%$	c #EACD4C",
"&$	c #FBE46C",
"*$	c #FCEE9B",
"=$	c #F5E084",
"-$	c #DDB829",
";$	c #EFC528",
">$	c #F8CD2C",
",$	c #D5AD23",
"'$	c #C59E1F",
")$	c #C19A1D",
"!$	c #D2AA24",
"~$	c #DFB727",
"{$	c #E9BF26",
"]$	c #F5CB2D",
"^$	c #DBB627",
"/$	c #F4DC76",
"($	c #FCEE95",
"_$	c #F9E86D",
":$	c #F3DA5A",
"<$	c #846412",
"[$	c #B18C2D",
"}$	c #F1D54F",
"|$	c #FBE56B",
"1$	c #FCED95",
"2$	c #FBF0AE",
"3$	c #DDB82B",
"4$	c #E3BC28",
"5$	c #FBD02F",
"6$	c #EFC527",
"7$	c #DFB723",
"8$	c #DBB62A",
"9$	c #FCEDA3",
"0$	c #FDED8D",
"a$	c #FCE867",
"b$	c #F7DF55",
"c$	c #AE892B",
"d$	c #E9CB4C",
"e$	c #FAE362",
"f$	c #FCEB85",
"g$	c #FCF1A5",
"h$	c #FAECA2",
"i$	c #E5C23C",
"j$	c #DBB72A",
"k$	c #DDB726",
"l$	c #E1BB27",
"m$	c #E0BA2A",
"n$	c #D5B023",
"o$	c #E3BF37",
"p$	c #FAE596",
"q$	c #FFEC9C",
"r$	c #FEE87C",
"s$	c #FCE45D",
"t$	c #F4D652",
"u$	c #97741D",
"v$	c #A17E23",
"w$	c #D2AC41",
"x$	c #FAE157",
"y$	c #FDEA71",
"z$	c #FEEF8A",
"A$	c #FCF19D",
"B$	c #FDF4AD",
"C$	c #FCF4B6",
"D$	c #FEF4B7",
"E$	c #FEF1B3",
"F$	c #FDEDAC",
"G$	c #FEE89F",
"H$	c #FDE28D",
"I$	c #FDDF79",
"J$	c #FFDF65",
"K$	c #FEDC53",
"L$	c #E6BD4A",
"M$	c #806010",
"N$	c #97751E",
"O$	c #AC872A",
"P$	c #E2BE4B",
"Q$	c #FDE65E",
"R$	c #FAE866",
"S$	c #FCED77",
"T$	c #FAED7F",
"U$	c #FDF087",
"V$	c #FDED84",
"W$	c #FBE477",
"X$	c #FDDE69",
"Y$	c #FFD95A",
"Z$	c #FED653",
"`$	c #EAC04D",
" %	c #A37F24",
".%	c #7C5C0D",
"+%	c #8B6B17",
"@%	c #8F6E18",
"#%	c #BE9633",
"$%	c #E4BB4C",
"%%	c #EBCA54",
"&%	c #F1D45A",
"*%	c #F1D35A",
"=%	c #EBC853",
"-%	c #E4BA4B",
";%	c #BC9532",
">%	c #836312",
",%	c #7C5C0E",
"'%	c #7E5D0E",
")%	c #7A5C0D",
"!%	c #7B5B0D",
"                                                                ",
"                        . + @ # $ % & *                         ",
"                  = - ; > , ' ) ! ~ { ] ^ / (                   ",
"                _ : < [ } | 1 2 3 4 5 6 7 8 9 0                 ",
"            a b c d e f g h i j k l m n o p q r s t             ",
"          u v w x y z A B C D E F G H I J K L M N O P           ",
"        Q R S T U V W X Y Z `  ...+.@.#.$.%.&.*.=.-.;.>.        ",
"        ,.'.).!.~.{.].^./.(._.:.<.[.}.|.1.2.3.4.5.6.7.8.        ",
"      9.0.a.b.c.d.e.f.g.h.i.j.j.j.j.k.l.m.n.o.p.q.r.s.t.u.      ",
"      R v.w.x.y.z.A.B.i.j.j.j.j.j.j.j.j.C.D.E.F.G.H.I.J.K.      ",
"    L.M.N.O.P.Q.R.S.j.j.j.j.j.T.U.j.j.j.j.j.V.W.X.Y.Z.`. +.+    ",
"    ++@+#+$+%+&+*+=+j.j.=+-+;+>+,+'+)+!+j.j.~+{+]+^+/+(+_+0     ",
"    :+<+[+}+|+1+2+j.j.3+4+5+6+7+8+9+0+a+b+c+d+e+f+g+h+i+j+k+    ",
"  l+m+n+o+p+q+r+s+j.j.t+u+v+w+x+y+z+A+o.B+C+F.D+E+f+F+G+H+I+J+  ",
"  K+L+M+N+O+j.j.j.j.j.j.j.P+Q+R+S+T+U+V+W+X+Y+Z+`+A+G. @.@+@@@  ",
"  #@$@%@&@*@=@-@j.j.;@>@,@'@)@!@~@{@]@^@/@(@_@:@<@A+[@}@|@1@2@  ",
"  3@4@5@6@7@8@9@j.j.0@a@b@c@d@e@f@g@j.j.j.j.j.j.h@i@j@k@l@m@2@  ",
"  n@o@p@q@r@s@t@j.j.u@v@w@x@y@z@A@B@j.j.j.j.j.j.C@D@E@F@G@H@I@  ",
"  J@K@L@M@N@O@j.j.j.j.j.j.D.o.f+P@Q@R@S@T@j.j.U@V@o.W@X@Y@Z@I@  ",
"    `@ #.#+#@###$#j.j.%#&#*#F.A+A+=#Y+-#;#j.j.>#U+,#'#)#!#~#    ",
"    {#]#^#/#(#_#:#<#j.j.[#}#|#1#2#3#4#5#j.j.6#7#8#9#0#a#b#c#    ",
"    d#e#f#g#h#i#j#k#j.j.j.j.l#m#n#o#j.j.j.j.p#q#P@r#s#t#u#v#    ",
"      w#x#y#z#A#y@B#C#D#j.j.j.j.j.j.j.j.j.E#F#G#H#I#J#K#L#      ",
"      M#N#O#P#Q#R#S#Y+T#U#V#j.j.j.j.j.W#X#Y#Z#`# $.$+$@$#$      ",
"        $$%$&$*$=$-$;$>$C+3#,$'$)$!$~${$2.]$^$/$($_$:$<$        ",
"          [$}$|$1$2$3$4$]$5$e@e@o.5$8#6$7$8$9$0$a$b$u.          ",
"            c$d$e$f$g$h$i$j$k$l$F+m$n$o$p$q$r$s$t$u$            ",
"              v$w$x$y$z$A$B$C$D$E$F$G$H$I$J$K$L$M$              ",
"                N$O$P$Q$R$S$T$U$V$W$X$Y$Z$`$ %.%                ",
"                    +%@%#%$%%%&%*%=%-%;%>%,%                    ",
"                            '%)%!%2@                            ",
"                                                                "};
