/* XPM */
static char * bitcoin16_xpm[] = {
"16 16 144 2",
"  	c None",
". 	c #EDCF85",
"+ 	c #E9C571",
"@ 	c #F5E6C0",
"# 	c #D1C284",
"$ 	c #FEF5B9",
"% 	c #FEF0AF",
"& 	c #FCE694",
"* 	c #FCDE72",
"= 	c #D5B84F",
"- 	c #C89E38",
"; 	c #94782E",
"> 	c #FFF9D0",
", 	c #FEFAE2",
"' 	c #EFDB8D",
") 	c #E7CD6C",
"! 	c #E0C250",
"~ 	c #E5C447",
"{ 	c #FEEEB3",
"] 	c #FCE880",
"^ 	c #AF8B2F",
"/ 	c #967A31",
"( 	c #FEF8D6",
"_ 	c #F4E6AF",
": 	c #F9E494",
"< 	c #F9DF7C",
"[ 	c #F4D667",
"} 	c #F2CF4F",
"| 	c #FBD440",
"1 	c #F2C92A",
"2 	c #E5C139",
"3 	c #FDED92",
"4 	c #BB9534",
"5 	c #F5E5BE",
"6 	c #FEF2C9",
"7 	c #F6E8B3",
"8 	c #FDE89A",
"9 	c #E6D082",
"0 	c #FFFFFF",
"a 	c #D2AC25",
"b 	c #FCD12F",
"c 	c #E7C440",
"d 	c #F9E87C",
"e 	c #93711B",
"f 	c #B39C56",
"g 	c #FFF6D8",
"h 	c #F6E18F",
"i 	c #E6CF80",
"j 	c #E1C455",
"k 	c #DABB44",
"l 	c #D2AC27",
"m 	c #F8CE2E",
"n 	c #FDECA8",
"o 	c #E4C051",
"p 	c #FEF5AF",
"q 	c #F5E4A2",
"r 	c #E8CF75",
"s 	c #E7C54E",
"t 	c #F8D140",
"u 	c #FDD438",
"v 	c #F4C828",
"w 	c #C6A225",
"x 	c #F6CB28",
"y 	c #FDD22E",
"z 	c #ECCC53",
"A 	c #F8DC5B",
"B 	c #FEF4A4",
"C 	c #E5CA67",
"D 	c #FFF8D0",
"E 	c #FBF3C7",
"F 	c #ECDC93",
"G 	c #FAD137",
"H 	c #ECC227",
"I 	c #D8AF21",
"J 	c #DCB426",
"K 	c #DEB627",
"L 	c #DCB72B",
"M 	c #FCD85C",
"N 	c #FBED8D",
"O 	c #E1C350",
"P 	c #DABB4A",
"Q 	c #D0B03B",
"R 	c #DDB731",
"S 	c #FACF2D",
"T 	c #BB961E",
"U 	c #F3C92A",
"V 	c #DBB62A",
"W 	c #FBD658",
"X 	c #FAE56A",
"Y 	c #F3DE89",
"Z 	c #E9D271",
"` 	c #C7A73A",
" .	c #F9CE2B",
"..	c #F5CA2C",
"+.	c #DCB321",
"@.	c #F5CA28",
"#.	c #F2D972",
"$.	c #F8D955",
"%.	c #9C7C28",
"&.	c #FCEFA0",
"*.	c #ECC328",
"=.	c #D5AE24",
"-.	c #B6911C",
";.	c #BD971F",
">.	c #F7F4EF",
",.	c #C9A221",
"'.	c #F3CA2D",
").	c #FDF2A5",
"!.	c #DCB245",
"~.	c #FDE561",
"{.	c #F8E693",
"].	c #FACF2E",
"^.	c #CEA722",
"/.	c #B6901C",
"(.	c #F7CC2B",
"_.	c #F6E286",
":.	c #FDEC71",
"<.	c #B38E2E",
"[.	c #FDE870",
"}.	c #F9E99B",
"|.	c #ECC329",
"1.	c #EAC026",
"2.	c #EEC42B",
"3.	c #F0C525",
"4.	c #E9C025",
"5.	c #F8E58D",
"6.	c #FEEC70",
"7.	c #916F1A",
"8.	c #A98428",
"9.	c #FAE25A",
"0.	c #FEF099",
"a.	c #F8EA9D",
"b.	c #E2BE35",
"c.	c #E3BF35",
"d.	c #F9E292",
"e.	c #FFE78D",
"f.	c #FDE056",
"g.	c #8C6B16",
"h.	c #C39B37",
"i.	c #F8E35E",
"j.	c #FDEE6F",
"k.	c #FDE86B",
"l.	c #F9D455",
"m.	c #C49C37",
"              . +               ",
"        @ # $ % & * = -         ",
"      ; > , ' ) ! ~ { ] ^       ",
"    / ( _ : < [ } | 1 2 3 4     ",
"  5 6 7 8 9 0 0 0 0 a b c d e   ",
"  f g h i 0 0 j k 0 0 l m n o   ",
"  p q r 0 0 s t u v w x y z A   ",
"  B C D 0 E F G H I J K b L M   ",
"  N O P 0 Q R S T 0 0 0 U V W   ",
"  X Y Z 0 0 `  ...+.0 0 @.#.$.  ",
"  %.&.*.=.0 0 -.;.>.0 ,.'.).!.  ",
"    ~.{.].^.0 0 0 0 /.(._.:.    ",
"    <.[.}.|.].1.2.3.4.5.6.7.    ",
"      8.9.0.a.b.c.d.e.f.g.      ",
"          h.i.j.k.l.m.          ",
"                                "};
