/* XPM */
static char * bitcoin16_xpm[] = {
"16 16 128 2",
"  	c None",
". 	c #FFD321",
"+ 	c #FFD421",
"@ 	c #FFD522",
"# 	c #FFD623",
"$ 	c #FFD624",
"% 	c #FFCF1F",
"& 	c #F5D346",
"* 	c #EDCD37",
"= 	c #ECCC2C",
"- 	c #ECCC2B",
"; 	c #ECCE37",
"> 	c #F4D448",
", 	c #FFD826",
"' 	c #FECF29",
") 	c #EBCB37",
"! 	c #F7CD01",
"~ 	c #FDD201",
"{ 	c #F8CE01",
"] 	c #EACA34",
"^ 	c #FED835",
"/ 	c #FFC818",
"( 	c #EAC937",
"_ 	c #FACF01",
": 	c #FCDA32",
"< 	c #FFFAE1",
"[ 	c #FFFFFE",
"} 	c #FFFFFF",
"| 	c #FFFBEC",
"1 	c #FDE263",
"2 	c #FBD001",
"3 	c #EACA32",
"4 	c #FFD626",
"5 	c #FFC515",
"6 	c #F5CB40",
"7 	c #F6CA02",
"8 	c #FCD628",
"9 	c #FFFEFB",
"0 	c #FFFDF4",
"a 	c #FEED9F",
"b 	c #FEEB96",
"c 	c #FFFAE6",
"d 	c #FDE05E",
"e 	c #F7CB02",
"f 	c #F3D246",
"g 	c #FFC211",
"h 	c #ECC736",
"i 	c #FBD017",
"j 	c #FEF6D5",
"k 	c #FFFEF8",
"l 	c #FBD21F",
"m 	c #FBCD02",
"n 	c #FDE476",
"o 	c #EBC936",
"p 	c #FFD31F",
"q 	c #FFC00F",
"r 	c #EBC52C",
"s 	c #FEEB9D",
"t 	c #FFF9E2",
"u 	c #FDE78C",
"v 	c #FBCA02",
"w 	c #FBCC09",
"x 	c #EAC21E",
"y 	c #FFD11E",
"z 	c #FFBE0D",
"A 	c #EAC32C",
"B 	c #FACE1F",
"C 	c #FFFFFD",
"D 	c #FDEBA4",
"E 	c #FACD17",
"F 	c #FAC803",
"G 	c #FCD951",
"H 	c #EAC01E",
"I 	c #FFCF1C",
"J 	c #FFBC0C",
"K 	c #EBC234",
"L 	c #FDEAA2",
"M 	c #FFFCF0",
"N 	c #FFFEFC",
"O 	c #FDE488",
"P 	c #FAC603",
"Q 	c #FAC911",
"R 	c #FCDC64",
"S 	c #FEF6D6",
"T 	c #EBC435",
"U 	c #FFCC1A",
"V 	c #FFBB0A",
"W 	c #F3C33B",
"X 	c #F4BF03",
"Y 	c #FBD653",
"Z 	c #FEF4D2",
"` 	c #FBD13E",
" .	c #F9CB25",
"..	c #FCE592",
"+.	c #FDEBAD",
"@.	c #F5C003",
"#.	c #F1C940",
"$.	c #FFCA18",
"%.	c #FFBB0E",
"&.	c #E8BD31",
"*.	c #F8C004",
"=.	c #FCDF7E",
"-.	c #FEF2CB",
";.	c #F8C104",
">.	c #E7BC2D",
",.	c #FFC81C",
"'.	c #FEBF1E",
").	c #E7BB31",
"!.	c #F4BC04",
"~.	c #F8C006",
"{.	c #F8C71D",
"].	c #F8C722",
"^.	c #F8C20D",
"/.	c #F4BD04",
"(.	c #E7BB2E",
"_.	c #FDC829",
":.	c #FFBA0E",
"<.	c #F2C03B",
"[.	c #E9BD34",
"}.	c #E8B920",
"|.	c #E8B91F",
"1.	c #E9BE34",
"2.	c #F1C23B",
"3.	c #FFC116",
"4.	c #FFB909",
"5.	c #FFBA0A",
"6.	c #FFB90A",
"7.	c #FFBB0B",
"                                ",
"          . + + @ # $           ",
"        % & * = - ; > ,         ",
"      ' ) ! ~ ~ ~ ~ { ] ^       ",
"    / ( _ : < [ } | 1 2 3 4     ",
"  5 6 7 8 9 0 a b c } d e f +   ",
"  g h i j k l m m m n m m o p   ",
"  q r s [ t u v v w w w v x y   ",
"  z A B C D E F G } } } F H I   ",
"  J K L M N O P Q R S N P T U   ",
"  V W X Y } Z `  ...[ +.@.#.$.  ",
"    %.&.*.=.N } } } -.;.>.,.    ",
"      '.).!.~.{.].^./.(._.      ",
"        :.<.[.}.|.1.2.3.        ",
"          4.5.6.5.7.J           ",
"                                "};
