<?xml version="1.0" encoding="utf-8"?>
<!-- Generator: Adobe Illustrator 16.0.0, SVG Export Plug-In . SVG Version: 6.00 Build 0)  -->
<!DOCTYPE svg PUBLIC "-//W3C//DTD SVG 1.1//EN" "http://www.w3.org/Graphics/SVG/1.1/DTD/svg11.dtd">
<svg version="1.1" id="Layer_1" xmlns="http://www.w3.org/2000/svg" xmlns:xlink="http://www.w3.org/1999/xlink" x="0px" y="0px"
	 width="125px" height="125px" viewBox="0 0 125 125" enable-background="new 0 0 125 125" xml:space="preserve">
<g>
	<defs>
		<path id="SVGID_1_" d="M25.268,77.125c1.897,3.332,3.347,6.516,5.354,9.32c5.766,8.053,13.137,13.927,22.943,16.354
			c5.802,1.437,11.679,1.577,17.595,1.057c4.648-0.409,9.135-1.451,13.294-3.638c12.547-6.598,21.889-20.604,20.553-38.051
			c-0.538-0.705-0.979-1.284-1.308-1.715c-10.429,0-20.585,0-30.692,0c-0.607,0.537-1.148,1.015-1.551,1.37c0,3.67,0,7.07,0,9.959
			c0.647,0.953,1.058,1.559,1.451,2.139c5.771,0,11.342,0,16.965,0c-0.033,0.339-0.015,0.524-0.072,0.683
			c-2.5,6.852-6.956,11.769-13.996,14.122c-4.407,1.474-8.954,1.727-13.537,1.4c-8.714-0.62-15.739-4.323-20.72-11.627
			c-0.253-0.371-0.43-0.796-0.748-1.393c2.786,0,5.327,0,7.641,0c0.752-0.626,1.312-1.092,1.742-1.449c0-1.64,0-3.03,0-4.354
			c-0.542-0.62-1.018-1.164-1.498-1.714c-3.836,0-7.528,0-11.296,0c-1.049-4.008-1.088-7.895-0.428-11.945c3.95,0,7.772,0,11.585,0
			c0.645-0.602,1.216-1.133,1.635-1.524c0-1.683,0-3.075,0-4.284c-0.582-0.703-1.044-1.263-1.448-1.75
			c-1.734,0-7.684-0.076-9.353-0.132c0.265-0.559,0.393-0.896,0.575-1.202c0.468-0.783,0.915-1.584,1.45-2.321
			c6.992-9.621,16.569-12.882,28.048-11.226c6.856,0.99,12.614,4.27,17.62,8.966c0.483,0.454,0.973,0.901,1.383,1.282
			c0.86,0,1.581,0,2.338,0c2.749-2.847,5.262-5.455,8.312-8.613c-0.898-0.883-1.433-1.437-2.086-2.065
			c-5.276-5.072-11.035-9.365-18.135-11.601c-4.744-1.494-9.606-2.187-14.556-2.292c-5.03-0.107-9.983,0.487-14.694,2.331
			c-11.793,4.614-19.759,13.012-24.236,24.797c-0.253,0.666-0.492,1.338-0.763,2.076c-3.167,0-6.2,0-9.008,0
			c-0.75,0.625-1.308,1.089-1.759,1.465c0,1.637,0,3.027,0,4.018c0.669,0.904,1.138,1.538,1.587,2.145c2.666,0,5.569,0,8.006,0
			c-0.351,2.073-0.18,7.828,0.319,11.889c-2.627,0-5.703,0-8.257,0c-0.68,0.611-1.219,1.095-1.657,1.488c0,1.622,0,3.012,0,4.321
			c0.548,0.622,1.027,1.165,1.513,1.716C18.815,77.125,22.156,77.125,25.268,77.125z"/>
	</defs>
	<clipPath id="SVGID_2_">
		<use xlink:href="#SVGID_1_"  overflow="visible"/>
	</clipPath>
	<circle clip-path="url(#SVGID_2_)" cx="62.5" cy="62.5" r="62.5"/>
</g>
<g id="Layer_2">
</g>
</svg>
